<?xml version="1.0" encoding="utf-8"?>
<!-- Generator: Adobe Illustrator 15.1.0, SVG Export Plug-In . SVG Version: 6.00 Build 0)  -->
<!DOCTYPE svg PUBLIC "-//W3C//DTD SVG 1.1//EN" "http://www.w3.org/Graphics/SVG/1.1/DTD/svg11.dtd">
<svg version="1.1" id="Layer_1" xmlns="http://www.w3.org/2000/svg" xmlns:xlink="http://www.w3.org/1999/xlink" x="0px" y="0px"
	 width="1000px" height="1000px" viewBox="0 0 1000 1000" enable-background="0 0 1000 1000" xml:space="preserve" fill="white">
<path d="M552.383,500.005l436.769-436.76c14.464-14.465,14.464-37.915,0-52.379c-14.462-14.465-37.914-14.464-52.378,0
	L500.005,447.627L63.227,10.849c-14.464-14.465-37.913-14.464-52.378,0c-14.464,14.463-14.464,37.914,0,52.377l436.777,436.779
	L10.849,936.774c-14.464,14.463-14.464,37.914,0,52.378C18.081,996.386,27.558,1000,37.038,1000c9.477,0,18.957-3.616,26.188-10.848
	l436.778-436.77l436.769,436.77c7.231,7.232,16.71,10.848,26.188,10.848c9.479,0,18.958-3.615,26.189-10.848
	c14.464-14.464,14.464-37.914,0-52.378L552.383,500.005z"/>
</svg>
