<?xml version="1.0" encoding="utf-8"?>
<!-- Generator: Adobe Illustrator 15.1.0, SVG Export Plug-In . SVG Version: 6.00 Build 0)  -->
<!DOCTYPE svg PUBLIC "-//W3C//DTD SVG 1.1//EN" "http://www.w3.org/Graphics/SVG/1.1/DTD/svg11.dtd">
<svg version="1.1" id="Layer_1" xmlns="http://www.w3.org/2000/svg" xmlns:xlink="http://www.w3.org/1999/xlink" x="0px" y="0px"
	 width="1000px" height="823.8px" viewBox="0 0 1000 823.8" enable-background="0 0 1000 823.8" xml:space="preserve" fill="#ed3e44">
<path d="M962.99,74.019H37.01C16.569,74.019,0,57.449,0,37.009C0,16.57,16.569,0,37.01,0h925.98c20.44,0,37.01,16.57,37.01,37.009
	C1000,57.449,983.431,74.019,962.99,74.019z"/>
<path d="M962.99,823.8H37.01C16.569,823.8,0,807.231,0,786.791s16.569-37.01,37.01-37.01h925.98c20.44,0,37.01,16.569,37.01,37.01
	S983.431,823.8,962.99,823.8z"/>
<path d="M962.99,448.912H37.01c-20.44,0-37.01-16.569-37.01-37.01c0-20.44,16.569-37.01,37.01-37.01h925.98
	c20.44,0,37.01,16.57,37.01,37.01C1000,432.342,983.431,448.912,962.99,448.912z"/>
</svg>
