<svg enable-background="0 0 1000 823.8" fill="#ed3e44" height="823.8" viewBox="0 0 1000 823.8" width="1000" xmlns="http://www.w3.org/2000/svg"><path d="m962.99 74.019h-925.98c-20.441 0-37.01-16.57-37.01-37.01 0-20.439 16.569-37.009 37.01-37.009h925.98c20.44 0 37.01 16.57 37.01 37.009 0 20.44-16.569 37.01-37.01 37.01z"/><path d="m962.99 823.8h-925.98c-20.441 0-37.01-16.569-37.01-37.009s16.569-37.01 37.01-37.01h925.98c20.44 0 37.01 16.569 37.01 37.01s-16.569 37.009-37.01 37.009z"/><path d="m962.99 448.912h-925.98c-20.44 0-37.01-16.569-37.01-37.01 0-20.44 16.569-37.01 37.01-37.01h925.98c20.44 0 37.01 16.57 37.01 37.01s-16.569 37.01-37.01 37.01z"/></svg>