<svg enable-background="new 0 0 122.879 103.609" height="103.609" viewBox="0 0 122.879 103.609" width="122.879" xmlns="http://www.w3.org/2000/svg"><path clip-rule="evenodd" d="m10.368 0h102.144c5.703 0 10.367 4.665 10.367 10.367 0 5.702-4.664 10.368-10.367 10.368h-102.144c-5.702 0-10.368-4.665-10.368-10.367 0-5.703 4.666-10.368 10.368-10.368zm0 82.875h102.144c5.703 0 10.367 4.665 10.367 10.367 0 5.702-4.664 10.367-10.367 10.367h-102.144c-5.702 0-10.368-4.665-10.368-10.367 0-5.702 4.666-10.367 10.368-10.367zm0-41.437h102.144c5.703 0 10.367 4.665 10.367 10.367 0 5.702-4.664 10.368-10.367 10.368h-102.144c-5.702 0-10.368-4.666-10.368-10.368 0-5.702 4.666-10.367 10.368-10.367z" fill-rule="evenodd"/></svg>